<svg xmlns:dc="http://purl.org/dc/elements/1.1/" xmlns:cc="http://creativecommons.org/ns#" xmlns:rdf="http://www.w3.org/1999/02/22-rdf-syntax-ns#" xmlns:svg="http://www.w3.org/2000/svg" xmlns="http://www.w3.org/2000/svg" xmlns:sodipodi="http://sodipodi.sourceforge.net/DTD/sodipodi-0.dtd" xmlns:inkscape="http://www.inkscape.org/namespaces/inkscape" viewBox="0 0 32 32" version="1.1" x="0px" y="0px"><g transform="translate(0,-1020.3622)"><path style="color:#000000;font-style:normal;font-variant:normal;font-weight:normal;font-stretch:normal;font-size:medium;line-height:normal;font-family:sans-serif;text-indent:0;text-align:start;text-decoration:none;text-decoration-line:none;text-decoration-style:solid;text-decoration-color:#000000;letter-spacing:normal;word-spacing:normal;text-transform:none;direction:ltr;block-progression:tb;writing-mode:lr-tb;baseline-shift:baseline;text-anchor:start;white-space:normal;clip-rule:nonzero;display:inline;overflow:visible;visibility:visible;opacity:1;isolation:auto;mix-blend-mode:normal;color-interpolation:sRGB;color-interpolation-filters:linearRGB;solid-color:#000000;solid-opacity:1;fill:#000000;fill-opacity:1;fill-rule:nonzero;stroke:none;stroke-width:1;stroke-linecap:round;stroke-linejoin:round;stroke-miterlimit:4;stroke-dasharray:none;stroke-dashoffset:0;stroke-opacity:1;color-rendering:auto;image-rendering:auto;shape-rendering:auto;text-rendering:auto;enable-background:accumulate" d="m 16,1029.584 c -4.705387,0 -8.5,4.0512 -8.5,9 0,4.9487 3.794613,9 8.5,9 4.705387,0 8.5,-4.0513 8.5,-9 0,-4.9488 -3.794613,-9 -8.5,-9 z m 0,1 c 4.131169,0 7.5,3.5599 7.5,8 0,4.4401 -3.368831,8 -7.5,8 -4.131169,0 -7.5,-3.5599 -7.5,-8 0,-4.4401 3.368831,-8 7.5,-8 z"/><path style="color:#000000;font-style:normal;font-variant:normal;font-weight:normal;font-stretch:normal;font-size:medium;line-height:normal;font-family:sans-serif;text-indent:0;text-align:start;text-decoration:none;text-decoration-line:none;text-decoration-style:solid;text-decoration-color:#000000;letter-spacing:normal;word-spacing:normal;text-transform:none;direction:ltr;block-progression:tb;writing-mode:lr-tb;baseline-shift:baseline;text-anchor:start;white-space:normal;clip-rule:nonzero;display:inline;overflow:visible;visibility:visible;opacity:1;isolation:auto;mix-blend-mode:normal;color-interpolation:sRGB;color-interpolation-filters:linearRGB;solid-color:#000000;solid-opacity:1;fill:#000000;fill-opacity:1;fill-rule:nonzero;stroke:none;stroke-width:1;stroke-linecap:round;stroke-linejoin:round;stroke-miterlimit:4;stroke-dasharray:none;stroke-dashoffset:0;stroke-opacity:1;color-rendering:auto;image-rendering:auto;shape-rendering:auto;text-rendering:auto;enable-background:accumulate" d="m 16.009766,1025.3633 c -0.915242,-0 -1.831477,0.2737 -2.613282,0.8281 -1.563616,1.1089 -2.254101,3.0916 -1.716796,4.9316 a 0.50033803,0.50033803 0 0 0 0.960937,-0.2792 c -0.418818,-1.4343 0.115177,-2.9716 1.333984,-3.836 1.218802,-0.8644 2.847434,-0.8618 4.0625,0.01 1.21504,0.8697 1.743414,2.4094 1.31836,3.8418 a 0.50024728,0.50024728 0 1 0 0.958984,0.2852 c 0.545305,-1.8377 -0.136529,-3.8238 -1.695312,-4.9395 -0.779409,-0.5578 -1.694134,-0.8378 -2.609375,-0.8398 z"/><path style="color:#000000;font-style:normal;font-variant:normal;font-weight:normal;font-stretch:normal;font-size:medium;line-height:normal;font-family:sans-serif;text-indent:0;text-align:start;text-decoration:none;text-decoration-line:none;text-decoration-style:solid;text-decoration-color:#000000;letter-spacing:normal;word-spacing:normal;text-transform:none;direction:ltr;block-progression:tb;writing-mode:lr-tb;baseline-shift:baseline;text-anchor:start;white-space:normal;clip-rule:nonzero;display:inline;overflow:visible;visibility:visible;opacity:1;isolation:auto;mix-blend-mode:normal;color-interpolation:sRGB;color-interpolation-filters:linearRGB;solid-color:#000000;solid-opacity:1;fill:#000000;fill-opacity:1;fill-rule:evenodd;stroke:none;stroke-width:1px;stroke-linecap:butt;stroke-linejoin:miter;stroke-miterlimit:4;stroke-dasharray:none;stroke-dashoffset:0;stroke-opacity:1;color-rendering:auto;image-rendering:auto;shape-rendering:auto;text-rendering:auto;enable-background:accumulate" d="m 4.75,1027.6113 0,1 0.75,0 c 0.2820647,0 0.5,0.218 0.5,0.5 l 0,4 c 0,0.8225 0.6774952,1.5 1.5,1.5 l 1.5,0 0,-1 -1.5,0 c -0.2820647,0 -0.5,-0.2179 -0.5,-0.5 l 0,-4 c 0,-0.8225 -0.6774952,-1.5 -1.5,-1.5 l -0.75,0 z"/><path style="color:#000000;font-style:normal;font-variant:normal;font-weight:normal;font-stretch:normal;font-size:medium;line-height:normal;font-family:sans-serif;text-indent:0;text-align:start;text-decoration:none;text-decoration-line:none;text-decoration-style:solid;text-decoration-color:#000000;letter-spacing:normal;word-spacing:normal;text-transform:none;direction:ltr;block-progression:tb;writing-mode:lr-tb;baseline-shift:baseline;text-anchor:start;white-space:normal;clip-rule:nonzero;display:inline;overflow:visible;visibility:visible;opacity:1;isolation:auto;mix-blend-mode:normal;color-interpolation:sRGB;color-interpolation-filters:linearRGB;solid-color:#000000;solid-opacity:1;fill:#000000;fill-opacity:1;fill-rule:evenodd;stroke:none;stroke-width:1px;stroke-linecap:butt;stroke-linejoin:miter;stroke-miterlimit:4;stroke-dasharray:none;stroke-dashoffset:0;stroke-opacity:1;color-rendering:auto;image-rendering:auto;shape-rendering:auto;text-rendering:auto;enable-background:accumulate" d="m 7.75,1042.6113 c -0.8225048,0 -1.5,0.6775 -1.5,1.5 l 0,4 c 0,0.2821 -0.2179353,0.5 -0.5,0.5 l -0.75,0 0,1 0.75,0 c 0.8225048,0 1.5,-0.6775 1.5,-1.5 l 0,-4 c 0,-0.282 0.2179353,-0.5 0.5,-0.5 l 1.5,0 0,-1 -1.5,0 z"/><path style="color:#000000;font-style:normal;font-variant:normal;font-weight:normal;font-stretch:normal;font-size:medium;line-height:normal;font-family:sans-serif;text-indent:0;text-align:start;text-decoration:none;text-decoration-line:none;text-decoration-style:solid;text-decoration-color:#000000;letter-spacing:normal;word-spacing:normal;text-transform:none;direction:ltr;block-progression:tb;writing-mode:lr-tb;baseline-shift:baseline;text-anchor:start;white-space:normal;clip-rule:nonzero;display:inline;overflow:visible;visibility:visible;opacity:1;isolation:auto;mix-blend-mode:normal;color-interpolation:sRGB;color-interpolation-filters:linearRGB;solid-color:#000000;solid-opacity:1;fill:#000000;fill-opacity:1;fill-rule:evenodd;stroke:none;stroke-width:1px;stroke-linecap:butt;stroke-linejoin:miter;stroke-miterlimit:4;stroke-dasharray:none;stroke-dashoffset:0;stroke-opacity:1;color-rendering:auto;image-rendering:auto;shape-rendering:auto;text-rendering:auto;enable-background:accumulate" d="m 26.5,1027.6113 c -0.822505,0 -1.5,0.6775 -1.5,1.5 l 0,4 c 0,0.2821 -0.217935,0.5 -0.5,0.5 l -1.5,0 0,1 1.5,0 c 0.822505,0 1.5,-0.6775 1.5,-1.5 l 0,-4 c 0,-0.282 0.217935,-0.5 0.5,-0.5 l 0.75,0 0,-1 -0.75,0 z"/><path style="color:#000000;font-style:normal;font-variant:normal;font-weight:normal;font-stretch:normal;font-size:medium;line-height:normal;font-family:sans-serif;text-indent:0;text-align:start;text-decoration:none;text-decoration-line:none;text-decoration-style:solid;text-decoration-color:#000000;letter-spacing:normal;word-spacing:normal;text-transform:none;direction:ltr;block-progression:tb;writing-mode:lr-tb;baseline-shift:baseline;text-anchor:start;white-space:normal;clip-rule:nonzero;display:inline;overflow:visible;visibility:visible;opacity:1;isolation:auto;mix-blend-mode:normal;color-interpolation:sRGB;color-interpolation-filters:linearRGB;solid-color:#000000;solid-opacity:1;fill:#000000;fill-opacity:1;fill-rule:evenodd;stroke:none;stroke-width:1px;stroke-linecap:butt;stroke-linejoin:miter;stroke-miterlimit:4;stroke-dasharray:none;stroke-dashoffset:0;stroke-opacity:1;color-rendering:auto;image-rendering:auto;shape-rendering:auto;text-rendering:auto;enable-background:accumulate" d="m 22.75,1042.6113 0,1 1.5,0 c 0.282065,0 0.5,0.218 0.5,0.5 l 0,4 c 0,0.8225 0.677495,1.5 1.5,1.5 l 0.75,0 0,-1 -0.75,0 c -0.282065,0 -0.5,-0.2179 -0.5,-0.5 l 0,-4 c 0,-0.8225 -0.677495,-1.5 -1.5,-1.5 l -1.5,0 z"/><path style="color:#000000;font-style:normal;font-variant:normal;font-weight:normal;font-stretch:normal;font-size:medium;line-height:normal;font-family:sans-serif;text-indent:0;text-align:start;text-decoration:none;text-decoration-line:none;text-decoration-style:solid;text-decoration-color:#000000;letter-spacing:normal;word-spacing:normal;text-transform:none;direction:ltr;block-progression:tb;writing-mode:lr-tb;baseline-shift:baseline;text-anchor:start;white-space:normal;clip-rule:nonzero;display:inline;overflow:visible;visibility:visible;opacity:1;isolation:auto;mix-blend-mode:normal;color-interpolation:sRGB;color-interpolation-filters:linearRGB;solid-color:#000000;solid-opacity:1;fill:#000000;fill-opacity:1;fill-rule:nonzero;stroke:none;stroke-width:1;stroke-linecap:round;stroke-linejoin:round;stroke-miterlimit:4;stroke-dasharray:none;stroke-dashoffset:0;stroke-opacity:1;color-rendering:auto;image-rendering:auto;shape-rendering:auto;text-rendering:auto;enable-background:accumulate" d="m 11.503906,1023.1113 a 0.50046135,0.50046135 0 1 0 -0.04297,1 c 1.090608,0.1012 1.945174,0.9552 2.041015,2.0371 a 0.50005,0.50005 0 1 0 0.996094,-0.088 c -0.138089,-1.5589 -1.382725,-2.8003 -2.945313,-2.9453 a 0.50005,0.50005 0 0 0 -0.04883,-0 z"/><path style="color:#000000;font-style:normal;font-variant:normal;font-weight:normal;font-stretch:normal;font-size:medium;line-height:normal;font-family:sans-serif;text-indent:0;text-align:start;text-decoration:none;text-decoration-line:none;text-decoration-style:solid;text-decoration-color:#000000;letter-spacing:normal;word-spacing:normal;text-transform:none;direction:ltr;block-progression:tb;writing-mode:lr-tb;baseline-shift:baseline;text-anchor:start;white-space:normal;clip-rule:nonzero;display:inline;overflow:visible;visibility:visible;opacity:1;isolation:auto;mix-blend-mode:normal;color-interpolation:sRGB;color-interpolation-filters:linearRGB;solid-color:#000000;solid-opacity:1;fill:#000000;fill-opacity:1;fill-rule:nonzero;stroke:none;stroke-width:1;stroke-linecap:round;stroke-linejoin:round;stroke-miterlimit:4;stroke-dasharray:none;stroke-dashoffset:0;stroke-opacity:1;color-rendering:auto;image-rendering:auto;shape-rendering:auto;text-rendering:auto;enable-background:accumulate" d="m 20.480469,1023.1133 a 0.50005,0.50005 0 0 0 -0.0332,0 c -1.562588,0.145 -2.807224,1.3864 -2.945313,2.9453 a 0.50005,0.50005 0 1 0 0.996094,0.088 c 0.09584,-1.0819 0.950407,-1.9359 2.041015,-2.0371 a 0.50005,0.50005 0 0 0 -0.05859,-0.998 z"/><path style="color:#000000;font-style:normal;font-variant:normal;font-weight:normal;font-stretch:normal;font-size:medium;line-height:normal;font-family:sans-serif;text-indent:0;text-align:start;text-decoration:none;text-decoration-line:none;text-decoration-style:solid;text-decoration-color:#000000;letter-spacing:normal;word-spacing:normal;text-transform:none;direction:ltr;block-progression:tb;writing-mode:lr-tb;baseline-shift:baseline;text-anchor:start;white-space:normal;clip-rule:nonzero;display:inline;overflow:visible;visibility:visible;opacity:1;isolation:auto;mix-blend-mode:normal;color-interpolation:sRGB;color-interpolation-filters:linearRGB;solid-color:#000000;solid-opacity:1;fill:#000000;fill-opacity:1;fill-rule:nonzero;stroke:none;stroke-width:1;stroke-linecap:round;stroke-linejoin:round;stroke-miterlimit:4;stroke-dasharray:none;stroke-dashoffset:0;stroke-opacity:1;color-rendering:auto;image-rendering:auto;shape-rendering:auto;text-rendering:auto;enable-background:accumulate" d="m 21.277344,1031.7129 a 0.50005,0.50005 0 0 0 -0.382813,0.1758 c -1.23077,1.4084 -3.008512,2.2179 -4.878906,2.2226 -1.870404,0 -3.650867,-0.795 -4.888672,-2.1972 a 0.50021905,0.50021905 0 1 0 -0.75,0.6621 c 1.42783,1.6175 3.485032,2.5405 5.642578,2.5351 2.157534,-0.01 4.207238,-0.9398 5.626953,-2.5644 a 0.50005,0.50005 0 0 0 -0.36914,-0.834 z"/><path style="color:#000000;font-style:normal;font-variant:normal;font-weight:normal;font-stretch:normal;font-size:medium;line-height:normal;font-family:sans-serif;text-indent:0;text-align:start;text-decoration:none;text-decoration-line:none;text-decoration-style:solid;text-decoration-color:#000000;letter-spacing:normal;word-spacing:normal;text-transform:none;direction:ltr;block-progression:tb;writing-mode:lr-tb;baseline-shift:baseline;text-anchor:start;white-space:normal;clip-rule:nonzero;display:inline;overflow:visible;visibility:visible;opacity:1;isolation:auto;mix-blend-mode:normal;color-interpolation:sRGB;color-interpolation-filters:linearRGB;solid-color:#000000;solid-opacity:1;fill:#000000;fill-opacity:1;fill-rule:evenodd;stroke:none;stroke-width:0.99999988px;stroke-linecap:butt;stroke-linejoin:round;stroke-miterlimit:4;stroke-dasharray:none;stroke-dashoffset:0;stroke-opacity:1;color-rendering:auto;image-rendering:auto;shape-rendering:auto;text-rendering:auto;enable-background:accumulate" d="m 22.576172,1037.1113 c -1.044965,0 -2.011041,0.6368 -2.6875,1.4668 -0.676459,0.83 -1.099374,1.9109 -0.78125,2.9317 l 1.246094,4.0019 0.955078,-0.2988 -1.246094,-4 c -0.174748,-0.5607 0.07193,-1.3541 0.601562,-2.0039 0.529633,-0.6499 1.304668,-1.0977 1.91211,-1.0977 l 1.416016,0 2.355468,0.7871 c 0.238805,0.08 0.439643,0.2484 0.560547,0.4707 l 1.212891,2.2325 L 29,1041.123 l -1.214844,-2.2324 c -0.241153,-0.4434 -0.640867,-0.7792 -1.11914,-0.9394 l -0.002,0 -2.43164,-0.8145 a 0.50004994,0.50004994 0 0 0 -0.160156,-0.025 l -1.496094,0 z"/><path style="color:#000000;font-style:normal;font-variant:normal;font-weight:normal;font-stretch:normal;font-size:medium;line-height:normal;font-family:sans-serif;text-indent:0;text-align:start;text-decoration:none;text-decoration-line:none;text-decoration-style:solid;text-decoration-color:#000000;letter-spacing:normal;word-spacing:normal;text-transform:none;direction:ltr;block-progression:tb;writing-mode:lr-tb;baseline-shift:baseline;text-anchor:start;white-space:normal;clip-rule:nonzero;display:inline;overflow:visible;visibility:visible;opacity:1;isolation:auto;mix-blend-mode:normal;color-interpolation:sRGB;color-interpolation-filters:linearRGB;solid-color:#000000;solid-opacity:1;fill:#000000;fill-opacity:1;fill-rule:evenodd;stroke:none;stroke-width:0.99999988px;stroke-linecap:butt;stroke-linejoin:round;stroke-miterlimit:4;stroke-dasharray:none;stroke-dashoffset:0;stroke-opacity:1;color-rendering:auto;image-rendering:auto;shape-rendering:auto;text-rendering:auto;enable-background:accumulate" d="m 7.9277344,1037.1113 a 0.50004994,0.50004994 0 0 0 -0.1601563,0.025 l -2.4335937,0.8145 c -0.4782732,0.1602 -0.8779876,0.496 -1.1191406,0.9394 L 3,1041.123 l 0.8789062,0.4786 1.2128907,-2.2325 c 0.1209039,-0.2223 0.3217422,-0.3909 0.5605469,-0.4707 l 2.3554687,-0.7871 1.4160156,0 c 0.6074419,0 1.3824769,0.4478 1.9121099,1.0977 0.529632,0.6498 0.77631,1.4432 0.601562,2.0039 l -1.246094,4 0.955078,0.2988 1.246094,-4.0019 c 0.318124,-1.0208 -0.104791,-2.1017 -0.78125,-2.9317 -0.676459,-0.83 -1.642534,-1.4668 -2.6874999,-1.4668 l -1.4960937,0 z"/></g><text x="0" y="47.000001" fill="#000000" font-size="5px" font-weight="bold" font-family="'Helvetica Neue', Helvetica, Arial-Unicode, Arial, Sans-serif">Created by anbileru adaleru</text><text x="0" y="52.000001" fill="#000000" font-size="5px" font-weight="bold" font-family="'Helvetica Neue', Helvetica, Arial-Unicode, Arial, Sans-serif">from the Noun Project</text></svg>