<?xml version="1.0" encoding="UTF-8" standalone="no"?>
<svg
   xmlns:dc="http://purl.org/dc/elements/1.1/"
   xmlns:cc="http://creativecommons.org/ns#"
   xmlns:rdf="http://www.w3.org/1999/02/22-rdf-syntax-ns#"
   xmlns:svg="http://www.w3.org/2000/svg"
   xmlns="http://www.w3.org/2000/svg"
   xmlns:sodipodi="http://sodipodi.sourceforge.net/DTD/sodipodi-0.dtd"
   xmlns:inkscape="http://www.inkscape.org/namespaces/inkscape"
   version="1.1"
   x="0px"
   y="0px"
   viewBox="0 0 47 38"
   enable-background="new 0 0 100 100"
   xml:space="preserve"
   id="svg16"
   sodipodi:docname="Checkmark.svg"
   width="47"
   height="38"
   inkscape:version="0.92.2 5c3e80d, 2017-08-06"><metadata
     id="metadata22"><rdf:RDF><cc:Work
         rdf:about=""><dc:format>image/svg+xml</dc:format><dc:type
           rdf:resource="http://purl.org/dc/dcmitype/StillImage" /><dc:title></dc:title></cc:Work></rdf:RDF></metadata><defs
     id="defs20" /><sodipodi:namedview
     pagecolor="#ffffff"
     bordercolor="#666666"
     borderopacity="1"
     objecttolerance="10"
     gridtolerance="10"
     guidetolerance="10"
     inkscape:pageopacity="0"
     inkscape:pageshadow="2"
     inkscape:window-width="1633"
     inkscape:window-height="987"
     id="namedview18"
     showgrid="false"
     inkscape:zoom="1.888"
     inkscape:cx="50"
     inkscape:cy="62.5"
     inkscape:window-x="98"
     inkscape:window-y="73"
     inkscape:window-maximized="0"
     inkscape:current-layer="svg16" /><g
     id="g10"
     transform="matrix(0.71160512,0,0,0.71160512,-10.713455,-20.898466)"><g
       id="g8"><g
         id="g6"><g
           id="g4"><path
             stroke-miterlimit="10"
             d="m 76.9,32.1 c 2.2,-2.4 5.7,1.1 3.5,3.5 C 68.2,49.4 55.9,63 43.6,76.7 c -0.6,0.7 -1.2,1.3 -1.8,2 -0.9,1 -2.6,0.9 -3.5,0 -6.2,-5.9 -12.4,-11.9 -18.6,-17.8 -2.3,-2.2 1.2,-5.8 3.5,-3.5 5.6,5.3 11.1,10.6 16.7,16 12.4,-13.8 24.7,-27.5 37,-41.3 z"
             id="path2"
             inkscape:connector-curvature="0"
             style="stroke:#000000;stroke-width:2;stroke-miterlimit:10" /></g></g></g></g></svg>