<svg xmlns:dc="http://purl.org/dc/elements/1.1/" xmlns:cc="http://creativecommons.org/ns#" xmlns:rdf="http://www.w3.org/1999/02/22-rdf-syntax-ns#" xmlns:svg="http://www.w3.org/2000/svg" xmlns="http://www.w3.org/2000/svg" xmlns:sodipodi="http://sodipodi.sourceforge.net/DTD/sodipodi-0.dtd" xmlns:inkscape="http://www.inkscape.org/namespaces/inkscape" version="1.1" x="0px" y="0px" viewBox="0 0 100 125"><g transform="translate(0,-952.36218)"><path style="font-size:medium;font-style:normal;font-variant:normal;font-weight:normal;font-stretch:normal;text-indent:0;text-align:start;text-decoration:none;line-height:normal;letter-spacing:normal;word-spacing:normal;text-transform:none;direction:ltr;block-progression:tb;writing-mode:lr-tb;text-anchor:start;baseline-shift:baseline;opacity:1;color:#000000;fill:#000000;fill-opacity:1;stroke:none;stroke-width:3.99999832999999990;marker:none;visibility:visible;display:inline;overflow:visible;enable-background:accumulate;font-family:Sans;-inkscape-font-specification:Sans" d="M 35.15625 16 A 2.0001989 2.0001989 0 0 0 33.5625 17.0625 L 27.84375 28 L 8 28 A 2.0001989 2.0001989 0 0 0 6 30 L 6 82 A 2.0001989 2.0001989 0 0 0 8 84 L 92 84 A 2.0001989 2.0001989 0 0 0 94 82 L 94 30 A 2.0001989 2.0001989 0 0 0 92 28 L 72.15625 28 L 66.4375 17.0625 A 2.0001989 2.0001989 0 0 0 64.65625 16 L 35.34375 16 A 2.0001989 2.0001989 0 0 0 35.15625 16 z M 36.5625 20 L 63.4375 20 L 69.15625 30.9375 A 2.0001989 2.0001989 0 0 0 70.9375 32 L 90 32 L 90 80 L 10 80 L 10 32 L 29.0625 32 A 2.0001989 2.0001989 0 0 0 30.84375 30.9375 L 36.5625 20 z M 50 35 C 39.530288 35 31 43.53032 31 54 C 31 64.47 39.530344 73 50 73 C 60.469671 73 69 64.47 69 54 C 69 43.53032 60.469726 35 50 35 z M 50 39 C 58.307958 39 65 45.6921 65 54 C 65 62.3084 58.308013 69 50 69 C 41.692004 69 35 62.3084 35 54 C 35 45.6921 41.69206 39 50 39 z " transform="translate(0,952.36218)"/></g><text x="0" y="115" fill="#000000" font-size="5px" font-weight="bold" font-family="'Helvetica Neue', Helvetica, Arial-Unicode, Arial, Sans-serif">Created by Icons fest</text><text x="0" y="120" fill="#000000" font-size="5px" font-weight="bold" font-family="'Helvetica Neue', Helvetica, Arial-Unicode, Arial, Sans-serif">from the Noun Project</text></svg>