<?xml version="1.0" encoding="UTF-8" standalone="no"?>
<svg
   xmlns:dc="http://purl.org/dc/elements/1.1/"
   xmlns:cc="http://creativecommons.org/ns#"
   xmlns:rdf="http://www.w3.org/1999/02/22-rdf-syntax-ns#"
   xmlns:svg="http://www.w3.org/2000/svg"
   xmlns="http://www.w3.org/2000/svg"
   xmlns:sodipodi="http://sodipodi.sourceforge.net/DTD/sodipodi-0.dtd"
   xmlns:inkscape="http://www.inkscape.org/namespaces/inkscape"
   version="1.1"
   x="0px"
   y="0px"
   viewBox="0 0 44 55.5"
   enable-background="new 0 0 100 100"
   xml:space="preserve"
   id="svg12"
   sodipodi:docname="Share.svg"
   width="44"
   height="55.5"
   inkscape:version="0.92.2 5c3e80d, 2017-08-06"><metadata
     id="metadata18"><rdf:RDF><cc:Work
         rdf:about=""><dc:format>image/svg+xml</dc:format><dc:type
           rdf:resource="http://purl.org/dc/dcmitype/StillImage" /><dc:title></dc:title></cc:Work></rdf:RDF></metadata><defs
     id="defs16" /><sodipodi:namedview
     pagecolor="#ffffff"
     bordercolor="#666666"
     borderopacity="1"
     objecttolerance="10"
     gridtolerance="10"
     guidetolerance="10"
     inkscape:pageopacity="0"
     inkscape:pageshadow="2"
     inkscape:window-width="1179"
     inkscape:window-height="705"
     id="namedview14"
     showgrid="false"
     inkscape:zoom="5.3400704"
     inkscape:cx="52.838888"
     inkscape:cy="31.201974"
     inkscape:window-x="592"
     inkscape:window-y="134"
     inkscape:window-maximized="0"
     inkscape:current-layer="svg12" /><circle
     stroke-miterlimit="10"
     cx="-172.07001"
     cy="-204.65198"
     r="7.1009998"
     id="circle2"
     style="fill:none;stroke:#000000;stroke-width:6;stroke-miterlimit:10" /><path
     stroke-miterlimit="10"
     d="M -573.885,-380"
     id="path4"
     inkscape:connector-curvature="0"
     style="fill:none;stroke:#000000;stroke-width:6;stroke-miterlimit:10" /><path
     stroke-miterlimit="10"
     d="M -537.115,-380"
     id="path6"
     inkscape:connector-curvature="0"
     style="fill:none;stroke:#000000;stroke-width:6;stroke-miterlimit:10" /><path
     d="m 29.830375,12.713017 c -0.457594,0.457594 -1.065089,0.69428 -1.672584,0.69428 -0.607495,0 -1.207101,-0.236686 -1.672584,-0.69428 l -1.892702,-1.89349 v 23.676528 c 0,1.309665 -1.057199,2.366864 -2.366864,2.366864 -1.301775,0 -2.366864,-1.057199 -2.366864,-2.366864 V 10.827417 l -1.885602,1.8856 c -0.930966,0.923077 -2.429979,0.923077 -3.353057,0 -0.923076,-0.923076 -0.923076,-2.422089 0,-3.345166 l 5.932939,-5.932939 c 0.118344,-0.118343 0.236687,-0.213018 0.370809,-0.299803 0.126233,-0.07889 0.252465,-0.149901 0.378698,-0.205128 0.0789,-0.03156 0.165681,-0.06312 0.252466,-0.08678 0.07101,-0.02367 0.142012,-0.04734 0.220907,-0.05523 0.02367,-0.0079 0.04734,-0.01578 0.0789,-0.01578 0.118342,-0.02367 0.244576,-0.03156 0.370808,-0.03156 0.117554,0 0.236686,0.0079 0.354241,0.03156 0.03156,0 0.06311,0.0079 0.09467,0.01578 0.07968,0.0079 0.149901,0.03156 0.220907,0.05523 0.08678,0.02367 0.17357,0.05523 0.252465,0.08678 0.126233,0.05523 0.251677,0.126233 0.377909,0.205129 0.06312,0.03945 0.126233,0.08679 0.18935,0.142011 0.06311,0.04734 0.126232,0.102564 0.181459,0.157791 l 0.157002,0.165681 5.775148,5.767259 c 0.924655,0.923076 0.924655,2.422089 0.0016,3.345165 z"
     id="path8"
     inkscape:connector-curvature="0"
     style="stroke-width:0.78895468" /><path
     d="M 40,21.233728 V 47.766272 C 40,50.377712 37.878501,52.5 35.266272,52.5 H 8.733728 C 6.122288,52.5 4,50.377712 4,47.766272 V 21.233728 C 4,18.622288 6.122288,16.5 8.733728,16.5 h 5.207101 c 1.309664,0 2.366863,1.057199 2.366863,2.366864 0,1.301775 -1.057199,2.366864 -2.366863,2.366864 H 8.733728 V 47.766272 H 35.266272 V 21.233728 h -4.757396 c -1.309665,0 -2.366864,-1.065089 -2.366864,-2.366864 0,-1.309665 1.057199,-2.366864 2.366864,-2.366864 h 4.757396 C 37.877712,16.5 40,18.622288 40,21.233728 Z"
     id="path10"
     inkscape:connector-curvature="0"
     style="stroke-width:0.78895468" /></svg>