<?xml version="1.0" encoding="UTF-8" standalone="no"?>
<svg
   xmlns:dc="http://purl.org/dc/elements/1.1/"
   xmlns:cc="http://creativecommons.org/ns#"
   xmlns:rdf="http://www.w3.org/1999/02/22-rdf-syntax-ns#"
   xmlns:svg="http://www.w3.org/2000/svg"
   xmlns="http://www.w3.org/2000/svg"
   xmlns:sodipodi="http://sodipodi.sourceforge.net/DTD/sodipodi-0.dtd"
   xmlns:inkscape="http://www.inkscape.org/namespaces/inkscape"
   viewBox="0 0 32 50"
   version="1.1"
   x="0px"
   y="0px"
   id="svg16"
   sodipodi:docname="Share2.svg"
   width="32"
   height="50"
   inkscape:version="0.92.2 5c3e80d, 2017-08-06">
  <metadata
     id="metadata22">
    <rdf:RDF>
      <cc:Work
         rdf:about="">
        <dc:format>image/svg+xml</dc:format>
        <dc:type
           rdf:resource="http://purl.org/dc/dcmitype/StillImage" />
        <dc:title>Upload s1.1</dc:title>
      </cc:Work>
    </rdf:RDF>
  </metadata>
  <defs
     id="defs20" />
  <sodipodi:namedview
     pagecolor="#ffffff"
     bordercolor="#666666"
     borderopacity="1"
     objecttolerance="10"
     gridtolerance="10"
     guidetolerance="10"
     inkscape:pageopacity="0"
     inkscape:pageshadow="2"
     inkscape:window-width="978"
     inkscape:window-height="817"
     id="namedview18"
     showgrid="false"
     inkscape:zoom="1.888"
     inkscape:cx="50"
     inkscape:cy="62.5"
     inkscape:window-x="579"
     inkscape:window-y="476"
     inkscape:window-maximized="0"
     inkscape:current-layer="svg16" />
  <title
     id="title2">Upload s1.1</title>
  <desc
     id="desc4">Created with Sketch.</desc>
  <g
     id="g10"
     style="fill:none;fill-rule:evenodd;stroke:none;stroke-width:1"
     transform="matrix(0.60230083,0,0,0.60230083,-14.069033,-3.809291)">
    <g
       id="g8"
       style="fill:#000000">
      <path
         d="M 50.856975,17.147314 66.86267,33.179749 c 0.471,0.471 -0.236,1.178 -0.707,0.707 L 51.368152,19.100207 C 51.168529,18.900597 51.00867,18.96508 51.00867,19.241806 v 40.291943 c 0,0.276 -0.223,0.5 -0.5,0.5 -0.276,0 -0.5,-0.224 -0.5,-0.5 V 19.241806 c 0,-0.28158 -0.160935,-0.340122 -0.359459,-0.141599 L 34.86267,33.886749 c -0.471,0.471 -1.179,-0.236 -0.707,-0.707 L 50.143425,17.147314 c 0.194809,-0.195354 0.516398,-0.197481 0.71355,0 z M 40.5,42.456823 c 0.276142,0 0.5,0.223858 0.5,0.5 0,0.276142 -0.223858,0.5 -0.5,0.5 H 31.495398 C 31.222286,43.456823 31,43.681722 31,43.965598 v 37.98245 c 0,0.282014 0.226385,0.508775 0.508775,0.508775 h 37.98245 C 69.773239,82.456823 70,82.230438 70,81.948048 v -37.98245 c 0,-0.278226 -0.229072,-0.508775 -0.495398,-0.508775 H 60.5 c -0.276142,0 -0.5,-0.223858 -0.5,-0.5 0,-0.276142 0.223858,-0.5 0.5,-0.5 h 9.004602 C 70.324657,42.456823 71,43.136521 71,43.965598 v 37.98245 c 0,0.835047 -0.674848,1.508775 -1.508775,1.508775 H 31.508775 C 30.673728,83.456823 30,82.781975 30,81.948048 v -37.98245 c 0,-0.833561 0.667368,-1.508775 1.495398,-1.508775 z"
         id="path6"
         inkscape:connector-curvature="0" />
    </g>
  </g>
</svg>
