<svg xmlns="http://www.w3.org/2000/svg" xmlns:xlink="http://www.w3.org/1999/xlink" version="1.1" x="0px" y="0px" viewBox="0 0 100 125" enable-background="new 0 0 100 100" xml:space="preserve"><circle fill="none" stroke="#000000" stroke-width="6" stroke-miterlimit="10" cx="-172.07" cy="-135.152" r="7.101"/><path fill="none" stroke="#000000" stroke-width="6" stroke-miterlimit="10" d="M-573.885-310.5"/><path fill="none" stroke="#000000" stroke-width="6" stroke-miterlimit="10" d="M-537.115-310.5"/><path d="M60.21,29.32c-0.58,0.58-1.35,0.88-2.12,0.88c-0.77,0-1.53-0.3-2.12-0.88l-2.399-2.4v30.01c0,1.66-1.34,3-3,3  c-1.65,0-3-1.34-3-3v-30l-2.39,2.39c-1.18,1.17-3.08,1.17-4.25,0c-1.17-1.17-1.17-3.07,0-4.24l7.52-7.52  c0.15-0.15,0.3-0.27,0.47-0.38c0.16-0.1,0.32-0.19,0.48-0.26c0.1-0.04,0.21-0.08,0.32-0.11c0.09-0.03,0.18-0.06,0.28-0.07  c0.03-0.01,0.06-0.02,0.1-0.02c0.15-0.03,0.31-0.04,0.47-0.04c0.149,0,0.3,0.01,0.449,0.04c0.04,0,0.08,0.01,0.12,0.02  c0.101,0.01,0.19,0.04,0.28,0.07c0.11,0.03,0.22,0.07,0.32,0.11c0.16,0.07,0.319,0.16,0.479,0.26c0.08,0.05,0.16,0.11,0.24,0.18  c0.08,0.06,0.16,0.13,0.23,0.2l0.199,0.21l7.32,7.31C61.38,26.25,61.38,28.15,60.21,29.32z"/><path d="M73.1,40.12v33.63c0,3.31-2.689,6-6,6H33.47c-3.31,0-6-2.69-6-6V40.12c0-3.31,2.69-6,6-6h6.6c1.66,0,3,1.34,3,3  c0,1.65-1.34,3-3,3h-6.6v33.63H67.1V40.12H61.07c-1.66,0-3-1.35-3-3c0-1.66,1.34-3,3-3H67.1C70.41,34.12,73.1,36.81,73.1,40.12z"/><text x="0" y="115" fill="#000000" font-size="5px" font-weight="bold" font-family="'Helvetica Neue', Helvetica, Arial-Unicode, Arial, Sans-serif">Created by ChangHoon Baek</text><text x="0" y="120" fill="#000000" font-size="5px" font-weight="bold" font-family="'Helvetica Neue', Helvetica, Arial-Unicode, Arial, Sans-serif">from the Noun Project</text></svg>