<?xml version="1.0" encoding="UTF-8" standalone="no"?>
<svg
   xmlns:dc="http://purl.org/dc/elements/1.1/"
   xmlns:cc="http://creativecommons.org/ns#"
   xmlns:rdf="http://www.w3.org/1999/02/22-rdf-syntax-ns#"
   xmlns:svg="http://www.w3.org/2000/svg"
   xmlns="http://www.w3.org/2000/svg"
   xmlns:sodipodi="http://sodipodi.sourceforge.net/DTD/sodipodi-0.dtd"
   xmlns:inkscape="http://www.inkscape.org/namespaces/inkscape"
   viewBox="0 0 100 125"
   version="1.1"
   x="0px"
   y="0px"
   id="svg16"
   sodipodi:docname="Share3Original.svg"
   inkscape:version="0.92.2 5c3e80d, 2017-08-06">
  <metadata
     id="metadata22">
    <rdf:RDF>
      <cc:Work
         rdf:about="">
        <dc:format>image/svg+xml</dc:format>
        <dc:type
           rdf:resource="http://purl.org/dc/dcmitype/StillImage" />
        <dc:title>Upload s1.3</dc:title>
      </cc:Work>
    </rdf:RDF>
  </metadata>
  <defs
     id="defs20" />
  <sodipodi:namedview
     pagecolor="#ffffff"
     bordercolor="#666666"
     borderopacity="1"
     objecttolerance="10"
     gridtolerance="10"
     guidetolerance="10"
     inkscape:pageopacity="0"
     inkscape:pageshadow="2"
     inkscape:window-width="1196"
     inkscape:window-height="558"
     id="namedview18"
     showgrid="false"
     inkscape:zoom="1.888"
     inkscape:cx="50"
     inkscape:cy="62.5"
     inkscape:window-x="0"
     inkscape:window-y="0"
     inkscape:window-maximized="0"
     inkscape:current-layer="svg16" />
  <title
     id="title2">Upload s1.3</title>
  <desc
     id="desc4">Created with Sketch.</desc>
  <g
     id="g10"
     stroke-width="1"
     stroke="none"
     fill-rule="evenodd"
     fill="none">
    <g
       id="g8"
       fill="#000000">
      <path
         d="M51.7297417,15.7374435 L67.3793543,31.5411847 C69.2615852,33.4273396 66.4382388,36.255572 64.5570059,34.369417 L52.7074736,22.4961243 C52.3066532,22.0945001 51.9961586,22.2285535 51.9961586,22.7776991 L51.9961586,58.9574372 C51.9961586,60.062528 51.1019492,60.9576015 50.0001555,60.9576015 C48.8973638,60.9576015 48.0041524,60.062528 48.0041524,58.9574372 L48.0041524,22.7776991 C48.0041524,22.2267621 47.6856859,22.1024881 47.2928374,22.4961243 L35.4433051,34.369417 C33.5610742,36.255572 30.7387258,33.4273396 32.6209567,31.5411847 L48.2056399,15.7374435 C49.1737658,14.7557096 50.7545648,14.7526625 51.7297417,15.7374435 Z M40,40.4156626 C41.1045695,40.4156626 42,41.3110931 42,42.4156626 C42,43.5202321 41.1045695,44.4156626 40,44.4156626 L33.0003297,44.4156626 C32.447105,44.4156626 32,44.8633016 32,45.4221638 L32,79.4091614 C32,79.9667173 32.4485588,80.4156626 33.0065012,80.4156626 L66.9934988,80.4156626 C67.5510547,80.4156626 68,79.9671038 68,79.4091614 L68,45.4221638 C68,44.8677696 67.5482652,44.4156626 66.9996703,44.4156626 L60,44.4156626 C58.8954305,44.4156626 58,43.5202321 58,42.4156626 C58,41.3110931 58.8954305,40.4156626 60,40.4156626 L66.9996703,40.4156626 C69.758142,40.4156626 72,42.6593678 72,45.4221638 L72,79.4091614 C72,82.1770143 69.7594229,84.4156626 66.9934988,84.4156626 L33.0065012,84.4156626 C30.2386482,84.4156626 28,82.1750855 28,79.4091614 L28,45.4221638 C28,42.6552306 30.2368966,40.4156626 33.0003297,40.4156626 L40,40.4156626 Z"
         id="path6" />
    </g>
  </g>
  <text
     x="0"
     y="115"
     fill="#000000"
     font-size="5px"
     font-weight="bold"
     font-family="'Helvetica Neue', Helvetica, Arial-Unicode, Arial, Sans-serif"
     id="text12">Created by Landan Lloyd</text>
  <text
     x="0"
     y="120"
     fill="#000000"
     font-size="5px"
     font-weight="bold"
     font-family="'Helvetica Neue', Helvetica, Arial-Unicode, Arial, Sans-serif"
     id="text14">from the Noun Project</text>
</svg>
