<svg xmlns="http://www.w3.org/2000/svg" xmlns:xlink="http://www.w3.org/1999/xlink" viewBox="0 0 100 125" version="1.1" x="0px" y="0px"><title>Upload s1.1</title><desc>Created with Sketch.</desc><g stroke="none" stroke-width="1" fill="none" fill-rule="evenodd"><g fill="#000000"><path d="M50.8569748,17.1473141 L66.8626699,33.1797487 C67.3336699,33.6507487 66.6266699,34.3577487 66.1556699,33.8867487 L51.3681523,19.1002075 C51.168529,18.9005974 51.0086699,18.9650796 51.0086699,19.2418058 L51.0086699,59.5337487 C51.0086699,59.8097487 50.7856699,60.0337487 50.5086699,60.0337487 C50.2326699,60.0337487 50.0086699,59.8097487 50.0086699,59.5337487 L50.0086699,19.2418058 C50.0086699,18.9602262 49.8477347,18.9016839 49.6492111,19.1002075 L34.8626699,33.8867487 C34.3916699,34.3577487 33.6836699,33.6507487 34.1556699,33.1797487 L50.1434253,17.1473141 C50.3382344,16.9519605 50.6598231,16.949833 50.8569748,17.1473141 Z M40.5,42.456823 C40.7761424,42.456823 41,42.6806806 41,42.956823 C41,43.2329654 40.7761424,43.456823 40.5,43.456823 L31.4953976,43.456823 C31.2222858,43.456823 31,43.6817221 31,43.9655982 L31,81.9480478 C31,82.2300615 31.2263849,82.456823 31.5087752,82.456823 L69.4912248,82.456823 C69.7732385,82.456823 70,82.2304381 70,81.9480478 L70,43.9655982 C70,43.6873719 69.7709283,43.456823 69.5046024,43.456823 L60.5,43.456823 C60.2238576,43.456823 60,43.2329654 60,42.956823 C60,42.6806806 60.2238576,42.456823 60.5,42.456823 L69.5046024,42.456823 C70.3246571,42.456823 71,43.1365209 71,43.9655982 L71,81.9480478 C71,82.7830952 70.3251515,83.456823 69.4912248,83.456823 L31.5087752,83.456823 C30.6737278,83.456823 30,82.7819745 30,81.9480478 L30,43.9655982 C30,43.1320367 30.6673678,42.456823 31.4953976,42.456823 L40.5,42.456823 Z"/></g></g><text x="0" y="115" fill="#000000" font-size="5px" font-weight="bold" font-family="'Helvetica Neue', Helvetica, Arial-Unicode, Arial, Sans-serif">Created by Landan Lloyd</text><text x="0" y="120" fill="#000000" font-size="5px" font-weight="bold" font-family="'Helvetica Neue', Helvetica, Arial-Unicode, Arial, Sans-serif">from the Noun Project</text></svg>