<?xml version="1.0" encoding="UTF-8" standalone="no"?>
<svg
   xmlns:dc="http://purl.org/dc/elements/1.1/"
   xmlns:cc="http://creativecommons.org/ns#"
   xmlns:rdf="http://www.w3.org/1999/02/22-rdf-syntax-ns#"
   xmlns:svg="http://www.w3.org/2000/svg"
   xmlns="http://www.w3.org/2000/svg"
   xmlns:sodipodi="http://sodipodi.sourceforge.net/DTD/sodipodi-0.dtd"
   xmlns:inkscape="http://www.inkscape.org/namespaces/inkscape"
   viewBox="0 0 50 50"
   version="1.1"
   x="0px"
   y="0px"
   id="svg16"
   sodipodi:docname="Share3.svg"
   width="50"
   height="50"
   inkscape:version="0.92.2 5c3e80d, 2017-08-06">
  <metadata
     id="metadata22">
    <rdf:RDF>
      <cc:Work
         rdf:about="">
        <dc:format>image/svg+xml</dc:format>
        <dc:type
           rdf:resource="http://purl.org/dc/dcmitype/StillImage" />
        <dc:title>Upload s1.3</dc:title>
      </cc:Work>
    </rdf:RDF>
  </metadata>
  <defs
     id="defs20" />
  <sodipodi:namedview
     pagecolor="#ffffff"
     bordercolor="#666666"
     borderopacity="1"
     objecttolerance="10"
     gridtolerance="10"
     guidetolerance="10"
     inkscape:pageopacity="0"
     inkscape:pageshadow="2"
     inkscape:window-width="1196"
     inkscape:window-height="558"
     id="namedview18"
     showgrid="false"
     inkscape:zoom="1.888"
     inkscape:cx="50"
     inkscape:cy="62.5"
     inkscape:window-x="0"
     inkscape:window-y="0"
     inkscape:window-maximized="0"
     inkscape:current-layer="svg16" />
  <title
     id="title2">Upload s1.3</title>
  <desc
     id="desc4">Created with Sketch.</desc>
  <g
     id="g10"
     transform="matrix(0.50420897,0,0,0.50420897,0.2021488,-0.56313449)"
     style="fill:none;fill-rule:evenodd;stroke:none;stroke-width:1">
    <g
       id="g8"
       style="fill:#000000">
      <path
         d="m 51.729742,15.737443 15.649612,15.803742 c 1.882231,1.886155 -0.941115,4.714387 -2.822348,2.828232 L 52.707474,22.496124 C 52.306653,22.0945 51.996159,22.228553 51.996159,22.777699 v 36.179738 c 0,1.105091 -0.89421,2.000165 -1.996004,2.000165 -1.102791,0 -1.996003,-0.895074 -1.996003,-2.000165 V 22.777699 c 0,-0.550937 -0.318466,-0.675211 -0.711315,-0.281575 L 35.443305,34.369417 C 33.561074,36.255572 30.738726,33.42734 32.620957,31.541185 L 48.20564,15.737443 c 0.968126,-0.981733 2.548925,-0.98478 3.524102,0 z M 40,40.415663 c 1.104569,0 2,0.89543 2,2 0,1.104569 -0.895431,2 -2,2 H 33.00033 C 32.447105,44.415663 32,44.863302 32,45.422164 v 33.986997 c 0,0.557556 0.448559,1.006502 1.006501,1.006502 H 66.993499 C 67.551055,80.415663 68,79.967104 68,79.409161 V 45.422164 C 68,44.86777 67.548265,44.415663 66.99967,44.415663 H 60 c -1.104569,0 -2,-0.895431 -2,-2 0,-1.10457 0.895431,-2 2,-2 h 6.99967 c 2.758472,0 5.00033,2.243705 5.00033,5.006501 v 33.986997 c 0,2.767853 -2.240577,5.006502 -5.006501,5.006502 H 33.006501 C 30.238648,84.415663 28,82.175085 28,79.409161 V 45.422164 c 0,-2.766933 2.236897,-5.006501 5.00033,-5.006501 z"
         id="path6"
         inkscape:connector-curvature="0" />
    </g>
  </g>
</svg>
