<?xml version="1.0" encoding="UTF-8" standalone="no"?>
<svg
   xmlns:dc="http://purl.org/dc/elements/1.1/"
   xmlns:cc="http://creativecommons.org/ns#"
   xmlns:rdf="http://www.w3.org/1999/02/22-rdf-syntax-ns#"
   xmlns:svg="http://www.w3.org/2000/svg"
   xmlns="http://www.w3.org/2000/svg"
   xmlns:sodipodi="http://sodipodi.sourceforge.net/DTD/sodipodi-0.dtd"
   xmlns:inkscape="http://www.inkscape.org/namespaces/inkscape"
   version="1.1"
   x="0px"
   y="0px"
   viewBox="0 0 30 36"
   enable-background="new 0 0 15 18"
   xml:space="preserve"
   id="svg12"
   sodipodi:docname="TrashCanModified.svg"
   inkscape:version="0.92.2 5c3e80d, 2017-08-06"
   width="30"
   height="36"><metadata
     id="metadata18"><rdf:RDF><cc:Work
         rdf:about=""><dc:format>image/svg+xml</dc:format><dc:type
           rdf:resource="http://purl.org/dc/dcmitype/StillImage" /><dc:title></dc:title></cc:Work></rdf:RDF></metadata><defs
     id="defs16" /><sodipodi:namedview
     pagecolor="#ffffff"
     bordercolor="#666666"
     borderopacity="1"
     objecttolerance="10"
     gridtolerance="10"
     guidetolerance="10"
     inkscape:pageopacity="0"
     inkscape:pageshadow="2"
     inkscape:window-width="1035"
     inkscape:window-height="852"
     id="namedview14"
     showgrid="false"
     inkscape:zoom="14.833529"
     inkscape:cx="10.763966"
     inkscape:cy="38.84261"
     inkscape:window-x="0"
     inkscape:window-y="0"
     inkscape:window-maximized="0"
     inkscape:current-layer="svg12"
     inkscape:pagecheckerboard="false" /><g
     id="g6"
     transform="scale(2)"><g
       id="g4"><path
         d="M 7.5,15 C 7.776,15 8,14.775 8,14.5 v -6 C 8,8.224 7.776,8 7.5,8 7.224,8 7,8.224 7,8.5 v 6 C 7,14.775 7.224,15 7.5,15 Z m 3,0 c 0.275,0 0.5,-0.225 0.5,-0.5 v -6 C 11,8.224 10.775,8 10.5,8 10.225,8 10,8.224 10,8.5 v 6 c 0,0.275 0.225,0.5 0.5,0.5 z M 14,2 H 10 V 1 C 10,0.448 9.553,0 9,0 H 6 C 5.447,0 5,0.448 5,1 V 2 H 1 C 0.447,2 0,2.448 0,3 v 3 h 1 v 10 c 0,1.105 0.896,2 2,2 h 9 c 1.104,0 2,-0.895 2,-2 V 6 h 1 V 3 C 15,2.448 14.553,2 14,2 Z M 6,1.5 C 6,1.224 6.224,1 6.5,1 h 2 C 8.775,1 9,1.224 9,1.5 V 2 H 6 Z M 13,16 c 0,0.553 -0.447,1 -1,1 H 3 C 2.447,17 2,16.553 2,16 V 6 H 13 Z M 14,5 H 1 V 3.5 C 1,3.224 1.224,3 1.5,3 h 12 C 13.775,3 14,3.224 14,3.5 Z M 4.5,15 C 4.776,15 5,14.775 5,14.5 v -6 C 5,8.224 4.776,8 4.5,8 4.224,8 4,8.224 4,8.5 v 6 C 4,14.775 4.224,15 4.5,15 Z"
         id="path2"
         inkscape:connector-curvature="0" /></g></g></svg>